<svg width="16" height="16" viewBox="0 0 16 16" fill="none" xmlns="http://www.w3.org/2000/svg">
<g id="16px/question-circle">
<g id="icon">
<path d="M8.16667 11.4999C8.08 11.4999 7.99333 11.4799 7.91333 11.4466C7.83333 11.4133 7.76 11.3666 7.69333 11.3066C7.63333 11.2399 7.58667 11.1733 7.55333 11.0866C7.52 11.0066 7.5 10.9199 7.5 10.8333C7.5 10.7466 7.52 10.6599 7.55333 10.5799C7.58667 10.4999 7.63333 10.4266 7.69333 10.3599C7.76 10.2999 7.83333 10.2533 7.91333 10.2199C8.07333 10.1533 8.26 10.1533 8.42 10.2199C8.5 10.2533 8.57333 10.2999 8.64 10.3599C8.7 10.4266 8.74667 10.4999 8.78 10.5799C8.81333 10.6599 8.83333 10.7466 8.83333 10.8333C8.83333 10.9199 8.81333 11.0066 8.78 11.0866C8.74667 11.1733 8.7 11.2399 8.64 11.3066C8.57333 11.3666 8.5 11.4133 8.42 11.4466C8.34 11.4799 8.25333 11.4999 8.16667 11.4999Z" fill="#999FA6"/>
<path d="M8.16667 5C7.19043 5 6.33333 5.7347 6.33333 6.72965C6.33333 7.0058 6.55719 7.22965 6.83333 7.22965C7.10948 7.22965 7.33333 7.0058 7.33333 6.72965C7.33333 6.36165 7.66497 6 8.16667 6C8.66836 6 9 6.36165 9 6.72965C9 6.93656 8.88678 7.07313 8.57494 7.26952L8.57284 7.27085C8.22337 7.49338 7.66667 7.89045 7.66667 8.67781V8.83333C7.66667 9.10947 7.89052 9.33333 8.16667 9.33333C8.44281 9.33333 8.66667 9.10947 8.66667 8.83333V8.67781C8.66667 8.45797 8.78448 8.32174 9.10898 8.11499C9.45583 7.89642 10 7.4997 10 6.72965C10 5.7347 9.14291 5 8.16667 5Z" fill="#999FA6"/>
<path fill-rule="evenodd" clip-rule="evenodd" d="M8.16667 15.3333C4.21333 15.3333 1 12.12 1 8.16667C1 4.21333 4.21333 1 8.16667 1C12.12 1 15.3333 4.21333 15.3333 8.16667C15.3333 12.12 12.12 15.3333 8.16667 15.3333ZM8.16667 2C4.76667 2 2 4.76667 2 8.16667C2 11.5667 4.76667 14.3333 8.16667 14.3333C11.5667 14.3333 14.3333 11.5667 14.3333 8.16667C14.3333 4.76667 11.5667 2 8.16667 2Z" fill="#999FA6"/>
</g>
</g>
</svg>
